<?xml version="1.0" encoding="utf-8"?>
<!-- Generator: Adobe Illustrator 17.1.0, SVG Export Plug-In . SVG Version: 6.00 Build 0)  -->
<!DOCTYPE svg PUBLIC "-//W3C//DTD SVG 1.1//EN" "http://www.w3.org/Graphics/SVG/1.1/DTD/svg11.dtd">
<svg version="1.1" id="Layer_1" xmlns="http://www.w3.org/2000/svg" xmlns:xlink="http://www.w3.org/1999/xlink" x="0px" y="0px"
	 viewBox="0 0 1080 768" enable-background="new 0 0 1080 768" xml:space="preserve">
<path fill="none" d="M259.9,113c0,0-3.7,10.9,0.3,14.1c4,3.2,7.9,5.2,9.2,7.9c1.3,2.8-2.1,7.7,0.2,9.6c2.3,1.9,1.3,4.2,5.4,6.6
	s16.3,12.9,17,16.2c0.7,3.3,2.3,26.4,2.2,30.7s-3,18.5,10.4,21c13.4,2.5,32.2,4.2,35.8,5.4s15.5,8.1,26.3,14.3s24.2,7.3,28.8,9.4
	c4.6,2.1,16.9,4,19.7,7.9c2.8,3.9,3.8,10.8,7,12.7c3.2,1.9,14.4,8.9,19.2,11.4c4.8,2.5,20.2,16.6,24.1,22.8
	c3.9,6.3,7.5,16.2,9.5,20.8c2,4.6,8.4,10.6,7.4,17s-5.1,27.9-2.4,34.1c2.7,6.2,3.9,8,11.4,9.2c7.5,1.2,20.1-1.1,27.3-1.3
	c7.2-0.2,39.2-1.4,50.1,0.3c10.9,1.7,29.4,2.5,33.3,4.8c3.9,2.2,7,3.2,8.6,7.3s3.9,9.8,8.4,12.4s7.7,3.6,22.1,3.5s65.2-9.1,70-10.4
	c4.8-1.3,36.1-3.1,43.2-0.2s38.8,25.9,45,31.8c6.2,5.9,14,14.4,22.6,18s18.6,5.3,22.9,7.8c4.3,2.5,25.5,5.8,29.6,9.9
	s16.4,13.8,33.3,14c16.9,0.2,39,5.8,44.8,5.1c5.9-0.6,34.9-0.9,41.8-0.1c6.9,0.8,27.5,4.4,34.6,5.3c7.1,0.9,26.2,0.4,26.2,0.4
	s9.4-2.7,12.8-2.4c3.4,0.3,61.2-18.3,73.3-20.3s41.6-8,57.9-4.7c16.3,3.3,49.2,13.4,54.8,14.9c5.6,1.5,18,6.1,14.6-4
	c-3.4-10-7-18.5-2.7-20.9s6.7-7.4,9.9-9s15.4-6.7,15.1-8c-0.3-1.3,1.5-4.6,8.3-3.3c6.8,1.3,19.9-1.2,19.9-1.2l2.6,7
	c0,0-23.1-1.2-29.9,7.5c-6.9,8.7-2.3,18.6-2.8,22.6s-2,10.7-6.8,13.7s12.7,8.2,0.4,7.8s-22.5-1.7-26-1.7c-3.5,0-13.2-0.1-21.9-3.4
	c-8.6-3.3-14.8-5.7-28.9-6.8c-14-1.2-12.2-4.2-47.1,1.4s-25.2,4.5-42.3,7.9s-37.8,9.1-54.5,9c-16.7-0.1-32.1,2.3-44.8,1.9
	c-12.7-0.4-56-8.4-64.2-6.2c-8.2,2.2-28.3,12.7-23.8,24.2c4.5,11.4,38.9,47.9,42.9,58.2c4,10.4,16.2,31.3,21.5,38.2
	s18.6,11.9,31.3,14.6c12.7,2.7,82.4,11.8,93.2,19.5c10.8,7.8,18.7,18.9,17.9,25c-0.8,6.1-13.4,38.4-18.7,46.1
	c-5.3,7.7,14.9,37.1,15.6,44c0.7,6.9,18.2,32.5,27.9,39.6c9.6,7.1-10.4,14-10.4,14s-26.3-9.8-33.2-16.8s-8.4-14.5-18.2-20.1
	s-28.2-22.4-30.5-28.7c-2.3-6.3-5.4-18.5,3.3-26.6c8.7-8,30.1-20.4,37.8-27.8s20.9-23.7,12.7-30.4s-20-15.4-35.2-17.7
	c-15.2-2.2-69.4-6.6-82.3-7.8c-12.8-1.3-99.1-6.8-108.9-24.8c-9.8-18-5.2-28,3.6-34.1c8.8-6.1,33.6-21.8,28.3-31.4
	c-5.3-9.6-20-23.5-34.6-30c-14.7-6.5-30.2-20.9-41.1-30.3c-10.9-9.4-48.4-38.7-86.5-56.1c-38.1-17.4-44.3-19.1-51.9-17.7
	c-7.6,1.4-105.8,7.1-136,16.5c-30.3,9.5-88,15.8-88,15.8s-36.6,3.5-42.7-2.3c-6.1-5.8-18.7-21.6-42.7-27
	c-24.1-5.4-57.5-17.8-69.1-21.4c-11.6-3.6-26.8-10.9-48.6-6.9c-21.8,3.9-46.2,11-56,7.7c-3.3-1.1-7.3-2.1-11.6-2.9
	c-8.6-1.6-18.7-2.5-27.9-3c-13.8-0.7-36.6-4.2-33.6-1.3c3,2.9,7.4,10.1,12.3,10.9c4.8,0.9,25.9-2,29.4-2.6c3.5-0.7,41-3.7,13.7,1.4
	c-27.2,5.1-36.9,5.3-53.3,0.8c-16.5-4.5-12.7-6-21.2-0.1c-8.5,5.9-21.8,10.7-25.6,12.9c-3.8,2.2-21.1,5.7-23.3,5.8
	c-2.2,0.1-49.8-3.7-64.7-10.6c-14.9-6.9-13-6.2-42.7-1.2s-36,1.9-42.2,0.1s-25.4-9.5-29.7-8.9c-4.3,0.6,8.3-13.5,8.3-13.5l29.4,17
	c0,0,16.2,3.9,30-0.6c13.8-4.5,36.4-64.7,12.5-85.7s11-41.9,21.4-38.1s15.4,21.9,18.3,24.7c2.9,2.8,13.4,11.5,13.4,11.5
	s-2,3.2-4.8,4.8s2.8,16.4,9,22.8c6.2,6.4,22.9,17,38.8,21.8s47.3,3.7,56.1,7.6c8.8,3.9,29.8-0.7,27.7,1c-2.1,1.7-3.6,3.1,2.5,5.8
	c6.2,2.7,49.5-4.6,90.3-3.9c40.8,0.7,94.7,16.6,103.3,18.6c8.6,2.1,62,3.2,77.3,9.4s52.2,2.1,61.3,3.6c9.1,1.5,48.3,5.4,59.7,4.8
	c11.4-0.6,42.2,0.4,42.3-2.7c0.2-3.1-9.2-11.7-16.1-16.2s-27.2-7.3-37.7-6.7c-10.5,0.6-43.6,5.2-50.2,4.2c-6.6-0.9-26.8-2.8-30.3-14
	c-3.5-11.2-0.2-41.4-6.3-50.4s-25.5-31.8-29.1-36.7c-3.6-4.9-25.3-18.9-36.6-21.1c-11.3-2.2-42.4-4.5-58.4-21
	c-16.1-16.5-31.8-23.9-41.2-22.9c-9.4,0.9-15.1-1.5-17.6-0.1s-35.4,12.2-44.3,13.1c-8.9,0.9-31.6,4-48.4-4.3
	c-16.8-8.3-56.6-35.3-56.6-35.3l10.2-29.6c0,0,19.5,9.5,23,18.5c3.5,9,1.3,21.5,11,27.1s25.6,18.2,39.1,17.9
	c13.5-0.3,30.5-4.9,41.5-6.9c10.9-2.1,32.5-7,29.2-11.1c-3.4-4.1-3.9-15-2.8-25.4c1.1-10.4,2.5-21.7-4.2-25.5s-9.9-2.8-22.3-7.1
	c-12.5-4.3-26.7-12.6-26.7-12.6L259.9,113z"/>
</svg>
