<?xml version="1.0" encoding="utf-8"?>
<!-- Generator: Adobe Illustrator 16.0.4, SVG Export Plug-In . SVG Version: 6.00 Build 0) -->
<!DOCTYPE svg PUBLIC "-//W3C//DTD SVG 1.1//EN" "http://www.w3.org/Graphics/SVG/1.1/DTD/svg11.dtd">
<svg version="1.1" id="Layer_1" xmlns="http://www.w3.org/2000/svg" xmlns:xlink="http://www.w3.org/1999/xlink" x="0px" y="0px"
width="960px" height="560px" viewBox="0 0 960 560" enable-background="new 0 0 960 560" xml:space="preserve">
<path fill="#FFFFFF" stroke="#000000" stroke-miterlimit="10" d="M215,78.5c3.608,37.279-6.988,91.92,17.355,123.443
c24.118,31.23,71.465,48.669,89.895,82.026C342.37,320.384,344,382.189,344,423.031c0,51.012-24.412,93.192,39,123.227
c43.315,20.516,112.714,6.242,158.797,6.242c13.675,0,46.728,6.441,59.203,0c36.387-18.786,24.57-89.369,10.657-115.684
c-34.353-64.974-130.05-120.42-132.14-199.895c-1.308-49.734-6.34-53.206-36.361-86.371C414.217,118.581,455.103,49.488,480,26.25
C518.118-9.327,369.82,0.5,358.976,0.5c-53.992,0-107.984,0-161.976,0C203,26.5,209,52.5,215,78.5z"/>
</svg>